<svg xmlns="http://www.w3.org/2000/svg" width="512" height="512" viewBox="0 0 128 128">
  <g fill="none" stroke="#1F3B59" stroke-width="6" stroke-linecap="round" stroke-linejoin="round">
    <!-- bulb -->
    <path d="M64 10a16 16 0 0 0-16 16c0 6 3 9 6 12v6h20v-6c3-3 6-6 6-12A16 16 0 0 0 64 10z" fill="#F7C948" />
    <rect x="58" y="44" width="12" height="6" rx="3" fill="#1F3B59" stroke="none"/>
    <!-- rays -->
    <line x1="36" y1="22" x2="30" y2="22" />
    <line x1="92" y1="22" x2="98" y2="22" />
    <line x1="64" y1="0" x2="64" y2="4" />
    <line x1="49" y1="6" x2="46" y2="0" />
    <line x1="79" y1="6" x2="82" y2="0" />
    <!-- head -->
    <rect x="28" y="60" width="72" height="48" rx="10" fill="#F7C948" />
    <!-- ears -->
    <rect x="19" y="72" width="12" height="24" rx="6" fill="#4FB3BF" />
    <rect x="97" y="72" width="12" height="24" rx="6" fill="#4FB3BF" />
    <!-- eyes -->
    <circle cx="52" cy="84" r="4" fill="#1F3B59" stroke="none" />
    <circle cx="76" cy="84" r="4" fill="#1F3B59" stroke="none" />
    <!-- mouth -->
    <line x1="56" y1="98" x2="72" y2="98" />
  </g>
</svg>