<svg xmlns="http://www.w3.org/2000/svg" width="512" height="512" viewBox="0 0 128 128">
  <g fill="none" stroke="#1F3B59" stroke-width="6" stroke-linecap="round" stroke-linejoin="round">
    <!-- globe -->
    <circle cx="64" cy="52" r="44" fill="#4FB3BF" />
    <path d="M20 52h88M64 8v88M32 18c10 8 17 20 17 34s-7 26-17 34M96 18c-10 8-17 20-17 34s7 26 17 34" />
    <!-- robot head inside globe -->
    <rect x="34" y="72" width="60" height="40" rx="10" fill="#F7C948" />
    <rect x="26" y="80" width="10" height="24" rx="5" fill="#4FB3BF" />
    <rect x="92" y="80" width="10" height="24" rx="5" fill="#4FB3BF" />
    <line x1="64" y1="64" x2="64" y2="72" />
    <circle cx="64" cy="58" r="5" fill="#E95F4E" />
    <circle cx="52" cy="92" r="4" fill="#1F3B59" stroke="none" />
    <circle cx="76" cy="92" r="4" fill="#1F3B59" stroke="none" />
    <line x1="56" y1="106" x2="72" y2="106" />
  </g>
</svg>